<svg width="20" height="20" viewBox="0 0 20 20" fill="none" xmlns="http://www.w3.org/2000/svg">
<path d="M8.83338 10.5917C8.75527 10.5142 8.69328 10.422 8.65097 10.3205C8.60866 10.2189 8.58688 10.11 8.58688 10C8.58688 9.89 8.60866 9.78108 8.65097 9.67953C8.69328 9.57798 8.75527 9.48581 8.83338 9.40834L12.6584 5.59168C12.7365 5.51421 12.7985 5.42204 12.8408 5.32049C12.8831 5.21894 12.9049 5.11002 12.9049 5.00001C12.9049 4.89 12.8831 4.78108 12.8408 4.67953C12.7985 4.57798 12.7365 4.48581 12.6584 4.40834C12.5022 4.25313 12.291 4.16602 12.0709 4.16602C11.8507 4.16602 11.6395 4.25313 11.4834 4.40834L7.65838 8.23334C7.19021 8.70209 6.92725 9.33751 6.92725 10C6.92725 10.6625 7.19021 11.2979 7.65838 11.7667L11.4834 15.5917C11.6386 15.7456 11.8481 15.8324 12.0667 15.8333C12.1764 15.834 12.2851 15.813 12.3866 15.7715C12.4882 15.73 12.5805 15.6689 12.6584 15.5917C12.7365 15.5142 12.7985 15.422 12.8408 15.3205C12.8831 15.2189 12.9049 15.11 12.9049 15C12.9049 14.89 12.8831 14.7811 12.8408 14.6795C12.7985 14.578 12.7365 14.4858 12.6584 14.4083L8.83338 10.5917Z" fill="#07011A"/>
</svg>
