<svg width="20" height="21" viewBox="0 0 20 21" fill="none" xmlns="http://www.w3.org/2000/svg">
<path d="M12.8334 9.19721L9.00841 5.37221C8.85228 5.217 8.64107 5.12988 8.42091 5.12988C8.20076 5.12988 7.98955 5.217 7.83341 5.37221C7.75531 5.44968 7.69331 5.54185 7.651 5.6434C7.6087 5.74495 7.58691 5.85387 7.58691 5.96388C7.58691 6.07389 7.6087 6.18281 7.651 6.28436C7.69331 6.38591 7.75531 6.47807 7.83341 6.55554L11.6667 10.3722C11.7449 10.4497 11.8068 10.5418 11.8492 10.6434C11.8915 10.7449 11.9132 10.8539 11.9132 10.9639C11.9132 11.0739 11.8915 11.1828 11.8492 11.2844C11.8068 11.3859 11.7449 11.4781 11.6667 11.5555L7.83341 15.3722C7.67649 15.528 7.5879 15.7398 7.58712 15.9609C7.58633 16.1821 7.67343 16.3945 7.82925 16.5514C7.98506 16.7083 8.19683 16.7969 8.41797 16.7977C8.6391 16.7985 8.85149 16.7114 9.00841 16.5555L12.8334 12.7305C13.3016 12.2618 13.5645 11.6264 13.5645 10.9639C13.5645 10.3014 13.3016 9.66596 12.8334 9.19721Z" fill="white"/>
</svg>
