<svg width="18" height="19" viewBox="0 0 18 19" fill="none" xmlns="http://www.w3.org/2000/svg">
<g clip-path="url(#clip0_673_2610)">
<path fill-rule="evenodd" clip-rule="evenodd" d="M15.3472 3.47342C13.6627 1.78742 11.4232 0.858172 9.03747 0.857422C4.12122 0.857422 0.119975 4.85792 0.117725 9.77642C0.116975 11.3484 0.527975 12.8829 1.30872 14.2359L0.0427246 18.8574L4.77072 17.6169C6.07347 18.3279 7.54047 18.7022 9.03297 18.7029H9.03672C13.9522 18.7029 17.9542 14.7017 17.9565 9.78317C17.958 7.40042 17.031 5.15867 15.3472 3.47342ZM9.03747 17.1962H9.03447C7.70397 17.1962 6.39972 16.8384 5.26122 16.1627L4.99047 16.0022L2.18472 16.7379L2.93397 14.0019L2.75772 13.7214C2.01522 12.5409 1.62372 11.1767 1.62447 9.77642C1.62597 5.68892 4.95222 2.36342 9.04122 2.36342C11.0212 2.36342 12.8827 3.13592 14.2822 4.53692C15.6817 5.93867 16.452 7.80092 16.4512 9.78167C16.449 13.8707 13.1235 17.1962 9.03747 17.1962ZM13.104 11.6439C12.8812 11.5322 11.7855 10.9929 11.5807 10.9187C11.3767 10.8444 11.2282 10.8069 11.079 11.0297C10.9297 11.2524 10.5037 11.7549 10.3732 11.9042C10.2435 12.0527 10.113 12.0714 9.89022 11.9597C9.66747 11.8479 8.94897 11.6132 8.09772 10.8534C7.43547 10.2624 6.98772 9.53267 6.85797 9.30917C6.72822 9.08567 6.84447 8.96567 6.95547 8.85467C7.05597 8.75492 7.17822 8.59442 7.28997 8.46392C7.40247 8.33492 7.43922 8.24192 7.51422 8.09267C7.58847 7.94417 7.55172 7.81367 7.49547 7.70192C7.43922 7.59092 6.99372 6.49367 6.80847 6.04742C6.62772 5.61242 6.44397 5.67167 6.30672 5.66492C6.17697 5.65817 6.02847 5.65742 5.87922 5.65742C5.73072 5.65742 5.48922 5.71292 5.28522 5.93642C5.08122 6.15992 4.50522 6.69917 4.50522 7.79567C4.50522 8.89292 5.30397 9.95267 5.41497 10.1012C5.52597 10.2497 6.98622 12.5012 9.22197 13.4664C9.75372 13.6959 10.1692 13.8332 10.4925 13.9359C11.0265 14.1054 11.5125 14.0814 11.8965 14.0244C12.3247 13.9607 13.215 13.4852 13.401 12.9647C13.587 12.4442 13.587 11.9972 13.5307 11.9049C13.4752 11.8112 13.3267 11.7557 13.104 11.6439Z" fill="#07011A"/>
</g>
<defs>
<clipPath id="clip0_673_2610">
<rect width="18" height="18" fill="white" transform="translate(0 0.857422)"/>
</clipPath>
</defs>
</svg>
